<svg xmlns="http://www.w3.org/2000/svg" version="1.1" xmlns:xlink="http://www.w3.org/1999/xlink" xmlns:svgjs="http://svgjs.dev/svgjs" width="1500" height="268" viewBox="0 0 1500 268"><g transform="matrix(1,0,0,1,-0.9090909090911055,-0.8136925093861578)"><svg viewBox="0 0 396 71" data-background-color="#ffffff" preserveAspectRatio="xMidYMid meet" height="268" width="1500" xmlns="http://www.w3.org/2000/svg" xmlns:xlink="http://www.w3.org/1999/xlink"><g id="tight-bounds" transform="matrix(1,0,0,1,0.24000000000003752,0.21556779166573392)"><svg viewBox="0 0 395.5199999999999 70.5688644166685" height="70.5688644166685" width="395.5199999999999"><g><svg viewBox="0 0 492.10472851073735 87.80155710223426" height="70.5688644166685" width="395.5199999999999"><g><rect width="5.729403061278158" height="63.84990223425862" x="75.85688811627034" y="11.975827433987817" fill="#b4457f" opacity="1" stroke-width="0" stroke="transparent" fill-opacity="1" class="rect-yte-0" data-fill-palette-color="primary" rx="1%" id="yte-0" data-palette-color="#b4457f"></rect></g><g transform="matrix(1,0,0,1,96.58472851073739,12.134658036560598)"><svg viewBox="0 0 395.52 63.53224102911306" height="63.53224102911306" width="395.52"><g id="textblocktransform"><svg viewBox="0 0 395.52 63.53224102911306" height="63.53224102911306" width="395.52" id="textblock"><g><svg viewBox="0 0 395.52 63.53224102911306" height="63.53224102911306" width="395.52"><g transform="matrix(1,0,0,1,0,0)"><svg width="395.52" viewBox="4.2 -38 297.37 47.45" height="63.53224102911306" data-palette-color="#b4457f"><g class="wordmark-text-0" data-fill-palette-color="primary" id="text-0"><path d="M13.65 0L4.2 0 4.2-34.85 13.5-34.85Q19.65-34.85 22.45-32.41 25.25-29.98 25.25-25.55L25.25-25.55Q25.25-23.58 24.3-21.53 23.35-19.48 21.18-18.45L21.18-18.45Q24.15-17.73 25.58-15.55 27-13.38 27-10.05L27-10.05Q27-5.45 23.85-2.73 20.7 0 13.65 0L13.65 0ZM13.5-29.9L13.5-29.9 10.5-29.9 10.5-20.25 14.55-20.25Q16.25-20.25 17.24-21.06 18.23-21.88 18.64-23.06 19.05-24.25 19.05-25.35L19.05-25.35Q19.05-27.15 18.26-28.14 17.48-29.13 16.2-29.51 14.93-29.9 13.5-29.9ZM14.05-15.6L14.05-15.6 10.5-15.6 10.5-5.05 14.35-5.05Q15.85-5.05 17.24-5.45 18.63-5.85 19.51-7 20.4-8.15 20.4-10.4L20.4-10.4Q20.4-12.68 19.46-13.79 18.53-14.9 17.06-15.25 15.6-15.6 14.05-15.6ZM42 0.5L42 0.5Q36.5 0.5 33.5-2.95 30.5-6.4 30.5-12.5L30.5-12.5Q30.5-18.65 33.6-22.08 36.7-25.5 42.2-25.5L42.2-25.5Q47.72-25.5 50.61-21.96 53.5-18.43 53.5-12.5L53.5-12.5Q53.5-6.58 50.51-3.04 47.52 0.5 42 0.5ZM42.1-4.5L42.1-4.5Q46.85-4.5 46.85-12.5L46.85-12.5Q46.85-20.55 42.1-20.55L42.1-20.55Q39.75-20.55 38.45-18.69 37.15-16.82 37.15-12.5L37.15-12.5Q37.15-8.2 38.45-6.35 39.75-4.5 42.1-4.5ZM69.2 0.5L69.2 0.5Q63.7 0.5 60.7-2.95 57.7-6.4 57.7-12.5L57.7-12.5Q57.7-18.65 60.8-22.08 63.9-25.5 69.4-25.5L69.4-25.5Q74.92-25.5 77.81-21.96 80.7-18.43 80.7-12.5L80.7-12.5Q80.7-6.58 77.71-3.04 74.72 0.5 69.2 0.5ZM69.3-4.5L69.3-4.5Q74.05-4.5 74.05-12.5L74.05-12.5Q74.05-20.55 69.3-20.55L69.3-20.55Q66.95-20.55 65.65-18.69 64.34-16.82 64.34-12.5L64.34-12.5Q64.34-8.2 65.65-6.35 66.95-4.5 69.3-4.5ZM92.59 0L86.69 0 86.69-38 92.59-38 92.59-19.35 92.39-13.5 100.04-24.9 107.14-24.9 98.44-13.45 107.99 0 100.44 0 92.39-12.05 92.59-5.95 92.59 0ZM118.54 0L112.34 0 112.34-35.45 112.84-35.45 126.94-18.82 140.94-35.45 141.49-35.45 141.49 0 135.29 0 135.29-14.95 135.52-20.85 133.74-18.15 126.89-10.1 120.04-18.15 118.27-20.85 118.54-14.95 118.54 0ZM156.84 9.45L150.69 9.45 154.74-1.7 145.39-24.9 152.34-24.9 156.04-13.8 157.64-8.05 159.24-13.8 162.99-24.9 169.54-24.9 156.84 9.45ZM183.49 0.18L182.69 0.18 168.84-34.85 175.79-34.85 181.29-19.5 183.21-13.68 185.14-19.5 190.44-34.85 197.29-34.85 183.49 0.18ZM210.58 0.65L210.58 0.65Q206.38 0.65 203.81-1.11 201.23-2.88 200.06-5.79 198.88-8.7 198.88-12.15L198.88-12.15Q198.88-15.78 200.22-18.81 201.56-21.85 204.15-23.68 206.73-25.5 210.48-25.5L210.48-25.5Q216.08-25.5 218.31-22.26 220.53-19.03 220.53-13.1L220.53-13.1Q220.53-12.58 220.51-11.78 220.48-10.98 220.43-10.4L220.43-10.4 205.43-10.4Q205.58-7.45 207.1-5.78 208.61-4.1 211.63-4.1L211.63-4.1Q213.18-4.1 214.96-4.79 216.73-5.48 217.58-6.45L217.58-6.45 219.58-1.7Q218.58-1.03 216.42-0.19 214.26 0.65 210.58 0.65ZM205.38-14.3L205.38-14.3 214.18-14.3Q214.18-16.93 213.72-18.31 213.26-19.7 212.46-20.23 211.66-20.75 210.63-20.75L210.63-20.75Q208.08-20.75 206.81-18.86 205.53-16.98 205.38-14.3ZM232.83 0L226.43 0 226.43-24.9 232.23-24.9 232.36-21.63Q233.33-23.13 235.08-24.31 236.83-25.5 239.68-25.5L239.68-25.5Q243.48-25.5 245.33-23.1 247.18-20.7 247.18-16.45L247.18-16.45 247.18 0 240.78 0 240.78-15.9Q240.78-17.98 239.91-19.26 239.03-20.55 237.23-20.55L237.23-20.55Q235.48-20.55 234.16-19.26 232.83-17.98 232.83-15.9L232.83-15.9 232.83 0ZM261.53 0.6L261.53 0.6Q257.75 0.6 255.97-1.81 254.18-4.23 254.18-8.45L254.18-8.45 254.18-24.9 260.43-24.9 260.43-9Q260.43-6.95 261.18-5.65 261.93-4.35 263.73-4.35L263.73-4.35Q265.5-4.35 266.69-5.65 267.88-6.95 267.88-9L267.88-9 267.88-24.9 274.13-24.9 274.13 0 268.48 0 268.35-3.23Q267.43-1.75 265.84-0.58 264.25 0.6 261.53 0.6ZM291.63 0.65L291.63 0.65Q287.43 0.65 284.85-1.11 282.27-2.88 281.1-5.79 279.93-8.7 279.93-12.15L279.93-12.15Q279.93-15.78 281.26-18.81 282.6-21.85 285.19-23.68 287.77-25.5 291.52-25.5L291.52-25.5Q297.13-25.5 299.35-22.26 301.57-19.03 301.57-13.1L301.57-13.1Q301.57-12.58 301.55-11.78 301.52-10.98 301.47-10.4L301.47-10.4 286.47-10.4Q286.63-7.45 288.14-5.78 289.65-4.1 292.68-4.1L292.68-4.1Q294.22-4.1 296-4.79 297.77-5.48 298.63-6.45L298.63-6.45 300.63-1.7Q299.63-1.03 297.46-0.19 295.3 0.65 291.63 0.65ZM286.43-14.3L286.43-14.3 295.22-14.3Q295.22-16.93 294.76-18.31 294.3-19.7 293.5-20.23 292.7-20.75 291.68-20.75L291.68-20.75Q289.13-20.75 287.85-18.86 286.57-16.98 286.43-14.3Z" fill="#b4457f" data-fill-palette-color="primary"></path></g></svg></g></svg></g></svg></g></svg></g><g><svg viewBox="0 0 60.858450783081445 87.80155710223426" height="87.80155710223426" width="60.858450783081445"><g><svg xmlns="http://www.w3.org/2000/svg" xmlns:xlink="http://www.w3.org/1999/xlink" version="1.1" x="0" y="0" viewBox="17.1 4.6 56.300000000000004 81.22499999999998" enable-background="new 0 0 90 90" xml:space="preserve" height="87.80155710223426" width="60.858450783081445" class="icon-icon-0" data-fill-palette-color="accent" id="icon-0"><g fill="#b4457f" data-fill-palette-color="accent"><path d="M45.2 4.6C29.7 4.6 17.1 17.2 17.1 32.7S40.5 82.9 40.5 82.9C43.1 86.8 47.4 86.8 50 82.9 50 82.9 73.4 48.2 73.4 32.7S60.7 4.6 45.2 4.6M39.1 38.1C34.2 38.1 30.2 34.1 30.2 29.2S34.2 20.3 39.1 20.3 48 24.3 48 29.2 44 38.1 39.1 38.1" fill="#b4457f" data-fill-palette-color="accent"></path></g></svg></g></svg></g></svg></g><defs></defs></svg><rect width="395.5199999999999" height="70.5688644166685" fill="none" stroke="none" visibility="hidden"></rect></g></svg></g></svg>